<?xml version="1.0" encoding="UTF-8"?>
<svg version="1.1" xmlns="http://www.w3.org/2000/svg" width="751" height="633">
<path d="M0 0 C247.83 0 495.66 0 751 0 C751 208.89 751 417.78 751 633 C503.17 633 255.34 633 0 633 C0 424.11 0 215.22 0 0 Z " fill="#0C2519" transform="translate(0,0)"/>
<path d="M0 0 C0.96631851 0.86650177 1.93263702 1.73300354 2.92823792 2.62576294 C7.07832615 6.18132554 11.55253279 9.04825193 16.14819336 11.98779297 C29.06274782 20.47987702 41.17228188 29.87367989 52.9375 39.875 C53.47354748 40.32841404 54.00959496 40.78182809 54.56188631 41.24898195 C82.2660282 64.79366217 99.52672947 89.58498961 102.89567947 126.46366978 C103.41253667 132.89316418 103.744743 139.32548115 104.015625 145.76953125 C104.05969577 146.75512897 104.10376654 147.7407267 104.14917278 148.75619102 C106.11188023 195.3656097 100.90848665 242.81578896 98 289 C33.65 289 -30.7 289 -97 289 C-104.75157427 174.00499615 -104.75157427 174.00499615 -103.44140625 146.19140625 C-103.39534847 145.15059001 -103.34929068 144.10977377 -103.30183721 143.03741765 C-101.34661951 101.85146192 -89.22701849 73.67613105 -58.90188313 45.62124348 C-55.48662133 42.51984415 -52.0053882 39.49880774 -48.5 36.5 C-47.92054957 36.00200221 -47.34109914 35.50400441 -46.7440896 34.99091578 C-31.89397466 22.26174146 -16.43819254 10.61856622 0 0 Z " fill="#D953FA" transform="translate(375,172)"/>
<path d="M0 0 C1.43498103 0.15603817 2.86985669 0.31304546 4.3046875 0.47045898 C5.10374512 0.55778793 5.90280273 0.64511688 6.72607422 0.73509216 C28.31809993 3.25052027 46.73645763 14.8857386 60.7578125 31.13671875 C73.15670647 46.97014956 79.59169709 64.88229902 79 85 C83.29 85 87.58 85 92 85 C91.95875 83.39125 91.9175 81.7825 91.875 80.125 C91.93000657 58.56242605 102.23520092 39.24595725 116.75 23.8125 C129.97721737 11.18890564 147.42473859 2.02460766 165.73217773 0.45239258 C166.71959457 0.3664534 167.70701141 0.28051422 168.72434998 0.19197083 C169.47531448 0.12862045 170.22627899 0.06527008 171 0 C171.09327186 11.81475273 171.16405227 23.62941581 171.20724869 35.44446373 C171.22799584 40.93251052 171.25607418 46.42030277 171.30175781 51.90820312 C171.34567982 57.218588 171.36923348 62.52873028 171.37950897 67.83928299 C171.38681811 69.85077348 171.40108703 71.86225288 171.42292023 73.87363815 C171.71183875 101.63068197 165.04309832 126.02128926 145.1875 146.3125 C127.44142935 163.67663274 105.56365885 170.5869913 81.14746094 170.41772461 C61.73745089 169.88005587 45.0034566 162.08477774 30 150 C29.01386719 149.2265625 28.02773438 148.453125 27.01171875 147.65625 C23.84464046 144.99899653 21.39702687 141.99478697 18.9375 138.6875 C18.5041333 138.11064453 18.0707666 137.53378906 17.62426758 136.93945312 C16.4044233 135.30165881 15.20161626 133.6512143 14 132 C13.21882813 130.92685547 13.21882813 130.92685547 12.421875 129.83203125 C6.25815933 120.68398488 3.3206368 109.6623853 1 99 C0.82541763 98.30989334 0.65083527 97.61978668 0.47096252 96.9087677 C-0.18416467 92.86255869 -0.13061341 88.89568953 -0.11352539 84.8034668 C-0.11367142 83.88590103 -0.11381744 82.96833527 -0.1139679 82.02296448 C-0.11327275 78.99835829 -0.10549897 75.97381414 -0.09765625 72.94921875 C-0.09579066 70.84886204 -0.09436742 68.74850489 -0.09336853 66.64814758 C-0.08955449 61.1260355 -0.07973368 55.60394981 -0.06866455 50.08184814 C-0.05842652 44.44454302 -0.05386578 38.80723362 -0.04882812 33.16992188 C-0.03811043 22.11326967 -0.02104735 11.05663703 0 0 Z " fill="#0D251A" transform="translate(290,278)"/>
<path d="M0 0 C-1.37686238 3.19653477 -2.86243897 4.95404184 -5.5625 7.125 C-17.52094191 17.33184373 -25.36329227 29.86508883 -32 44 C-35.12024896 41.37340237 -36.38434112 38.29468403 -38.0625 34.625 C-43.7538612 22.76051024 -52.50313138 11.0859924 -63.2578125 3.3828125 C-63.83273437 2.92648437 -64.40765625 2.47015625 -65 2 C-65 1.34 -65 0.68 -65 0 C-42.42535042 -8.11584261 -22.5813935 -7.66524366 0 0 Z " fill="#0E261C" transform="translate(408,284)"/>
<path d="M0 0 C5.3702246 2.6851123 9.07234441 6.5515934 13.32885742 10.73852539 C14.31810099 11.70465351 15.31623485 12.66176143 16.32299805 13.60961914 C17.78268217 14.98398621 19.21407054 16.38821086 20.64453125 17.79296875 C21.50409424 18.6233667 22.36365723 19.45376465 23.24926758 20.30932617 C25 23 25 23 24.87670898 26.54711914 C24.17279342 29.3194605 23.45959524 31.83667652 22.328125 34.453125 C21.99586914 35.23187988 21.66361328 36.01063477 21.32128906 36.81298828 C20.96776367 37.61720215 20.61423828 38.42141602 20.25 39.25 C19.70811035 40.50852783 19.70811035 40.50852783 19.15527344 41.79248047 C16.8620926 47.09712623 14.51972292 52.37965315 12.09375 57.625 C10.61478756 60.83646131 9.20490476 64.07722756 7.796875 67.3203125 C7 69 7 69 6 70 C4.02 70 2.04 70 0 70 C0 46.9 0 23.8 0 0 Z " fill="#142823" transform="translate(381,196)"/>
<path d="M0 0 C0 23.1 0 46.2 0 70 C-1.98 70 -3.96 70 -6 70 C-6.24645264 69.39115967 -6.49290527 68.78231934 -6.74682617 68.1550293 C-13.0969023 52.45839755 -13.0969023 52.45839755 -20 37 C-20.75517488 35.35653468 -21.5053647 33.71076746 -22.25 32.0625 C-22.56453125 31.37285156 -22.8790625 30.68320313 -23.203125 29.97265625 C-23.46609375 29.32167969 -23.7290625 28.67070312 -24 28 C-24.28697754 27.41565186 -24.57395508 26.83130371 -24.86962891 26.22924805 C-25 24 -25 24 -22.92626953 21.34277344 C-21.92473806 20.33526224 -20.90917077 19.34158313 -19.8828125 18.359375 C-19.35106415 17.83232971 -18.8193158 17.30528442 -18.27145386 16.76226807 C-16.56731359 15.07951111 -14.84631309 13.41516767 -13.125 11.75 C-11.97157473 10.61307534 -10.8192166 9.47506695 -9.66796875 8.3359375 C-1.19515036 0 -1.19515036 0 0 0 Z " fill="#0E261C" transform="translate(369,196)"/>
<path d="M0 0 C2.62626703 2.62626703 4.56523609 5.10303394 6.6875 8.125 C13.22560921 17.13858896 20.03378335 24.14224256 28.94921875 30.73828125 C31.68030022 32.76298826 34.34524765 34.87619812 37 37 C24.79 37 12.58 37 0 37 C0 24.79 0 12.58 0 0 Z " fill="#10271E" transform="translate(290,411)"/>
<path d="M0 0 C0.33 0 0.66 0 1 0 C1 11.55 1 23.1 1 35 C-10.88 35 -22.76 35 -35 35 C-20 23 -20 23 -17.46484375 21.078125 C-14.80270273 18.83365745 -12.73885527 16.46559482 -10.5625 13.75 C-9.40427734 12.30947266 -9.40427734 12.30947266 -8.22265625 10.83984375 C-5.78428524 7.72438553 -3.40837628 4.57161045 -1.09375 1.36328125 C-0.7328125 0.91339844 -0.371875 0.46351563 0 0 Z " fill="#0E261C" transform="translate(459,413)"/>
<path d="M0 0 C4.00374431 1.83692389 6.71957934 4.49117916 9.75 7.625 C10.25660156 8.140625 10.76320313 8.65625 11.28515625 9.1875 C12.52803902 10.45383339 13.76465276 11.7263144 15 13 C13.41308507 16.84698071 10.8216106 19.53346525 7.94921875 22.45703125 C7.45339798 22.96425217 6.95757721 23.47147308 6.44673157 23.99406433 C5.39968634 25.05994246 4.34974989 26.12298722 3.29711914 27.18334961 C1.68909273 28.81088794 0.10362443 30.45849376 -1.48242188 32.10742188 C-2.50388307 33.14193522 -3.52662736 34.17518356 -4.55078125 35.20703125 C-5.02179764 35.70274124 -5.49281403 36.19845123 -5.97810364 36.70918274 C-7.3527832 38.06567383 -7.3527832 38.06567383 -10 40 C-12.84057617 39.79956055 -12.84057617 39.79956055 -15 39 C-14.30752507 34.4108865 -12.62277041 30.32558829 -10.83984375 26.07421875 C-10.53051407 25.32662796 -10.22118439 24.57903717 -9.90248108 23.80879211 C-8.9184082 21.43323655 -7.92805498 19.06035895 -6.9375 16.6875 C-6.26716128 15.07243857 -5.5972348 13.45720598 -4.92773438 11.84179688 C-3.28992418 7.89253283 -1.64647837 3.94565763 0 0 Z " fill="#122720" transform="translate(415,230)"/>
<path d="M0 0 C3.38842045 2.73398519 4.73820376 6.4700784 6.390625 10.37109375 C6.85393219 11.44920067 6.85393219 11.44920067 7.32659912 12.54908752 C7.9757076 14.06636677 8.62099164 15.58528712 9.26269531 17.10571289 C10.24741811 19.43140216 11.25183134 21.74789386 12.2578125 24.06445312 C12.88663342 25.54114913 13.5142779 27.01834677 14.140625 28.49609375 C14.44260803 29.18787216 14.74459106 29.87965057 15.0557251 30.59239197 C17.07272897 35.44110328 17.07272897 35.44110328 16.67871094 38.46899414 C16.45473633 38.97422607 16.23076172 39.47945801 16 40 C11.02755242 39.61506192 8.55992067 37.08695737 5.26171875 33.65234375 C4.73608841 33.12105362 4.21045807 32.58976349 3.66889954 32.04237366 C1.99877952 30.34993418 0.34313523 28.64410004 -1.3125 26.9375 C-2.44503508 25.78489427 -3.57848899 24.63319058 -4.71289062 23.48242188 C-7.48601531 20.66528879 -10.24624293 17.83606272 -13 15 C-11.16307611 10.99625569 -8.50882084 8.28042066 -5.375 5.25 C-4.859375 4.74339844 -4.34375 4.23679688 -3.8125 3.71484375 C-2.54616661 2.47196098 -1.2736856 1.23534724 0 0 Z " fill="#11271F" transform="translate(334,230)"/>
<path d="M0 0 C5.44358506 2.35524961 9.12597679 6.79736733 13.25 10.9375 C14.09046875 11.76185547 14.9309375 12.58621094 15.796875 13.43554688 C16.98796875 14.62567383 16.98796875 14.62567383 18.203125 15.83984375 C18.93176758 16.56550537 19.66041016 17.29116699 20.41113281 18.03881836 C22 20 22 20 22 23 C17.77658453 24.22835423 15.73466358 23.76533569 11.8125 21.875 C3.80922977 18.29907075 -4.54226792 16.20840782 -13 14 C-9.81968878 10.2341894 -6.64858175 6.51561011 -3.125 3.0625 C-2.23167969 2.18271484 -2.23167969 2.18271484 -1.3203125 1.28515625 C-0.66675781 0.64900391 -0.66675781 0.64900391 0 0 Z " fill="#182927" transform="translate(311,253)"/>
<path d="M0 0 C3.80475512 1.77002947 6.28089246 4.01352925 9.25 7 C10.58804687 8.3303125 10.58804687 8.3303125 11.953125 9.6875 C14 12 14 12 14 14 C12.83984375 14.30292969 11.6796875 14.60585938 10.484375 14.91796875 C2.17272467 17.13381462 -5.73659484 19.42860415 -13.51953125 23.1796875 C-16.42793066 24.14152038 -18.09386306 23.84523193 -21 23 C-19.48623919 19.43235715 -17.39486871 17.16293713 -14.6484375 14.453125 C-13.79765625 13.60878906 -12.946875 12.76445312 -12.0703125 11.89453125 C-11.18085938 11.02183594 -10.29140625 10.14914062 -9.375 9.25 C-8.4778125 8.36183594 -7.580625 7.47367187 -6.65625 6.55859375 C-4.44192996 4.36783031 -2.22307565 2.18187237 0 0 Z " fill="#192A28" transform="translate(438,253)"/>
</svg>
